<?xml version="1.0" encoding="UTF-8"?>
<svg xmlns="http://www.w3.org/2000/svg" xmlns:xlink="http://www.w3.org/1999/xlink" width="500pt" height="500pt" viewBox="0 0 500 500" version="1.1">
<defs>
<clipPath id="clip1">
  <path d="M 227 0 L 427 0 L 427 250 L 227 250 Z M 227 0 "/>
</clipPath>
<clipPath id="clip2">
  <path d="M 227.980469 0.273438 L 401.6875 67.539063 L 426.40625 165.230469 L 250 250 "/>
</clipPath>
<clipPath id="clip3">
  <path d="M 250 130 L 500 130 L 500 394 L 250 394 Z M 250 130 "/>
</clipPath>
<clipPath id="clip4">
  <path d="M 426.40625 165.230469 L 482.050781 130.824219 L 543.632813 393.480469 L 250 250 "/>
</clipPath>
<clipPath id="clip5">
  <path d="M 250 250 L 500 250 L 500 500 L 250 500 Z M 250 250 "/>
</clipPath>
<clipPath id="clip6">
  <path d="M 543.632813 393.480469 L 541.40625 541.40625 L 393.480469 543.632813 L 250 250 "/>
</clipPath>
<clipPath id="clip7">
  <path d="M 130 250 L 394 250 L 394 500 L 130 500 Z M 130 250 "/>
</clipPath>
<clipPath id="clip8">
  <path d="M 393.480469 543.632813 L 130.824219 482.050781 L 165.230469 426.40625 L 250 250 "/>
</clipPath>
<clipPath id="clip9">
  <path d="M 0 227 L 250 227 L 250 427 L 0 427 Z M 0 227 "/>
</clipPath>
<clipPath id="clip10">
  <path d="M 165.230469 426.40625 L 67.539063 401.6875 L 0.273438 227.980469 L 250 250 "/>
</clipPath>
<clipPath id="clip11">
  <path d="M 0 0 L 250 0 L 250 271 L 0 271 Z M 0 0 "/>
</clipPath>
<clipPath id="clip12">
  <path d="M 0.273438 227.980469 L -79.777344 270.9375 L -15.164063 -15.164063 L 250 250 "/>
</clipPath>
<clipPath id="clip13">
  <path d="M 0 0 L 271 0 L 271 250 L 0 250 Z M 0 0 "/>
</clipPath>
<clipPath id="clip14">
  <path d="M -15.164063 -15.164063 L 270.9375 -79.777344 L 227.980469 0.273438 L 250 250 "/>
</clipPath>
</defs>
<g id="surface13">
<g clip-path="url(#clip1)" clip-rule="nonzero">
<g clip-path="url(#clip2)" clip-rule="nonzero">
<path style="fill:none;stroke-width:9;stroke-linecap:butt;stroke-linejoin:miter;stroke:rgb(58.4%,34.5%,69.8%);stroke-opacity:1;stroke-miterlimit:10;" d="M 73.222656 73.222656 C 122.039063 24.40625 240.757813 63.980469 338.386719 161.613281 C 436.019531 259.242188 475.59375 377.960938 426.777344 426.777344 C 377.960938 475.59375 259.242188 436.019531 161.613281 338.386719 C 63.980469 240.757813 24.40625 122.039063 73.222656 73.222656 "/>
</g>
</g>
<path style="fill:none;stroke-width:4.5;stroke-linecap:butt;stroke-linejoin:miter;stroke:rgb(22%,59.6%,14.9%);stroke-opacity:1;stroke-miterlimit:10;" d="M 235.320313 83.515625 L 250 250 "/>
<g clip-path="url(#clip3)" clip-rule="nonzero">
<g clip-path="url(#clip4)" clip-rule="nonzero">
<path style="fill:none;stroke-width:9;stroke-linecap:butt;stroke-linejoin:miter;stroke:rgb(79.6%,23.5%,20%);stroke-opacity:1;stroke-miterlimit:10;" d="M 73.222656 73.222656 C 122.039063 24.40625 240.757813 63.980469 338.386719 161.613281 C 436.019531 259.242188 475.59375 377.960938 426.777344 426.777344 C 377.960938 475.59375 259.242188 436.019531 161.613281 338.386719 C 63.980469 240.757813 24.40625 122.039063 73.222656 73.222656 "/>
</g>
</g>
<path style="fill:none;stroke-width:4.5;stroke-linecap:butt;stroke-linejoin:miter;stroke:rgb(58.4%,34.5%,69.8%);stroke-opacity:1;stroke-miterlimit:10;" d="M 367.605469 193.484375 L 250 250 "/>
<g clip-path="url(#clip5)" clip-rule="nonzero">
<g clip-path="url(#clip6)" clip-rule="nonzero">
<path style="fill:none;stroke-width:9;stroke-linecap:butt;stroke-linejoin:miter;stroke:rgb(25.1%,38.8%,84.7%);stroke-opacity:1;stroke-miterlimit:10;" d="M 73.222656 73.222656 C 122.039063 24.40625 240.757813 63.980469 338.386719 161.613281 C 436.019531 259.242188 475.59375 377.960938 426.777344 426.777344 C 377.960938 475.59375 259.242188 436.019531 161.613281 338.386719 C 63.980469 240.757813 24.40625 122.039063 73.222656 73.222656 "/>
</g>
</g>
<path style="fill:none;stroke-width:4.5;stroke-linecap:butt;stroke-linejoin:miter;stroke:rgb(79.6%,23.5%,20%);stroke-opacity:1;stroke-miterlimit:10;" d="M 445.753906 345.652344 L 250 250 "/>
<g clip-path="url(#clip7)" clip-rule="nonzero">
<g clip-path="url(#clip8)" clip-rule="nonzero">
<path style="fill:none;stroke-width:9;stroke-linecap:butt;stroke-linejoin:miter;stroke:rgb(22%,59.6%,14.9%);stroke-opacity:1;stroke-miterlimit:10;" d="M 73.222656 73.222656 C 122.039063 24.40625 240.757813 63.980469 338.386719 161.613281 C 436.019531 259.242188 475.59375 377.960938 426.777344 426.777344 C 377.960938 475.59375 259.242188 436.019531 161.613281 338.386719 C 63.980469 240.757813 24.40625 122.039063 73.222656 73.222656 "/>
</g>
</g>
<path style="fill:none;stroke-width:4.5;stroke-linecap:butt;stroke-linejoin:miter;stroke:rgb(25.1%,38.8%,84.7%);stroke-opacity:1;stroke-miterlimit:10;" d="M 345.652344 445.753906 L 250 250 "/>
<g clip-path="url(#clip9)" clip-rule="nonzero">
<g clip-path="url(#clip10)" clip-rule="nonzero">
<path style="fill:none;stroke-width:9;stroke-linecap:butt;stroke-linejoin:miter;stroke:rgb(58.4%,34.5%,69.8%);stroke-opacity:1;stroke-miterlimit:10;" d="M 73.222656 73.222656 C 122.039063 24.40625 240.757813 63.980469 338.386719 161.613281 C 436.019531 259.242188 475.59375 377.960938 426.777344 426.777344 C 377.960938 475.59375 259.242188 436.019531 161.613281 338.386719 C 63.980469 240.757813 24.40625 122.039063 73.222656 73.222656 "/>
</g>
</g>
<path style="fill:none;stroke-width:4.5;stroke-linecap:butt;stroke-linejoin:miter;stroke:rgb(22%,59.6%,14.9%);stroke-opacity:1;stroke-miterlimit:10;" d="M 193.484375 367.605469 L 250 250 "/>
<g clip-path="url(#clip11)" clip-rule="nonzero">
<g clip-path="url(#clip12)" clip-rule="nonzero">
<path style="fill:none;stroke-width:9;stroke-linecap:butt;stroke-linejoin:miter;stroke:rgb(79.6%,23.5%,20%);stroke-opacity:1;stroke-miterlimit:10;" d="M 73.222656 73.222656 C 122.039063 24.40625 240.757813 63.980469 338.386719 161.613281 C 436.019531 259.242188 475.59375 377.960938 426.777344 426.777344 C 377.960938 475.59375 259.242188 436.019531 161.613281 338.386719 C 63.980469 240.757813 24.40625 122.039063 73.222656 73.222656 "/>
</g>
</g>
<path style="fill:none;stroke-width:4.5;stroke-linecap:butt;stroke-linejoin:miter;stroke:rgb(58.4%,34.5%,69.8%);stroke-opacity:1;stroke-miterlimit:10;" d="M 83.515625 235.320313 L 250 250 "/>
<g clip-path="url(#clip13)" clip-rule="nonzero">
<g clip-path="url(#clip14)" clip-rule="nonzero">
<path style="fill:none;stroke-width:9;stroke-linecap:butt;stroke-linejoin:miter;stroke:rgb(22%,59.6%,14.9%);stroke-opacity:1;stroke-miterlimit:10;" d="M 73.222656 73.222656 C 122.039063 24.40625 240.757813 63.980469 338.386719 161.613281 C 436.019531 259.242188 475.59375 377.960938 426.777344 426.777344 C 377.960938 475.59375 259.242188 436.019531 161.613281 338.386719 C 63.980469 240.757813 24.40625 122.039063 73.222656 73.222656 "/>
</g>
</g>
<path style="fill:none;stroke-width:4.5;stroke-linecap:butt;stroke-linejoin:miter;stroke:rgb(79.6%,23.5%,20%);stroke-opacity:1;stroke-miterlimit:10;" d="M 73.222656 73.222656 L 250 250 "/>
<path style=" stroke:none;fill-rule:nonzero;fill:rgb(22%,59.6%,14.9%);fill-opacity:1;" d="M 260 250 C 260 255.523438 255.523438 260 250 260 C 244.476563 260 240 255.523438 240 250 C 240 244.476563 244.476563 240 250 240 C 255.523438 240 260 244.476563 260 250 "/>
<path style=" stroke:none;fill-rule:nonzero;fill:rgb(22%,59.6%,14.9%);fill-opacity:1;" d="M 253.320313 83.515625 C 253.320313 93.457031 245.261719 101.515625 235.320313 101.515625 C 225.378906 101.515625 217.320313 93.457031 217.320313 83.515625 C 217.320313 73.574219 225.378906 65.515625 235.320313 65.515625 C 245.261719 65.515625 253.320313 73.574219 253.320313 83.515625 "/>
<path style=" stroke:none;fill-rule:nonzero;fill:rgb(58.4%,34.5%,69.8%);fill-opacity:1;" d="M 385.605469 193.484375 C 385.605469 203.425781 377.546875 211.484375 367.605469 211.484375 C 357.664063 211.484375 349.605469 203.425781 349.605469 193.484375 C 349.605469 183.546875 357.664063 175.484375 367.605469 175.484375 C 377.546875 175.484375 385.605469 183.546875 385.605469 193.484375 "/>
<path style=" stroke:none;fill-rule:nonzero;fill:rgb(79.6%,23.5%,20%);fill-opacity:1;" d="M 463.753906 345.652344 C 463.753906 355.59375 455.695313 363.652344 445.753906 363.652344 C 435.8125 363.652344 427.753906 355.59375 427.753906 345.652344 C 427.753906 335.710938 435.8125 327.652344 445.753906 327.652344 C 455.695313 327.652344 463.753906 335.710938 463.753906 345.652344 "/>
<path style=" stroke:none;fill-rule:nonzero;fill:rgb(25.1%,38.8%,84.7%);fill-opacity:1;" d="M 363.652344 445.753906 C 363.652344 455.695313 355.59375 463.753906 345.652344 463.753906 C 335.710938 463.753906 327.652344 455.695313 327.652344 445.753906 C 327.652344 435.8125 335.710938 427.753906 345.652344 427.753906 C 355.59375 427.753906 363.652344 435.8125 363.652344 445.753906 "/>
<path style=" stroke:none;fill-rule:nonzero;fill:rgb(22%,59.6%,14.9%);fill-opacity:1;" d="M 211.484375 367.605469 C 211.484375 377.546875 203.425781 385.605469 193.484375 385.605469 C 183.546875 385.605469 175.484375 377.546875 175.484375 367.605469 C 175.484375 357.664063 183.546875 349.605469 193.484375 349.605469 C 203.425781 349.605469 211.484375 357.664063 211.484375 367.605469 "/>
<path style=" stroke:none;fill-rule:nonzero;fill:rgb(58.4%,34.5%,69.8%);fill-opacity:1;" d="M 101.515625 235.320313 C 101.515625 245.261719 93.457031 253.320313 83.515625 253.320313 C 73.574219 253.320313 65.515625 245.261719 65.515625 235.320313 C 65.515625 225.378906 73.574219 217.320313 83.515625 217.320313 C 93.457031 217.320313 101.515625 225.378906 101.515625 235.320313 "/>
<path style=" stroke:none;fill-rule:nonzero;fill:rgb(79.6%,23.5%,20%);fill-opacity:1;" d="M 91.222656 73.222656 C 91.222656 83.164063 83.164063 91.222656 73.222656 91.222656 C 63.28125 91.222656 55.222656 83.164063 55.222656 73.222656 C 55.222656 63.28125 63.28125 55.222656 73.222656 55.222656 C 83.164063 55.222656 91.222656 63.28125 91.222656 73.222656 "/>
</g>
</svg>
