<?xml version="1.0" encoding="UTF-8"?>
<svg xmlns="http://www.w3.org/2000/svg" xmlns:xlink="http://www.w3.org/1999/xlink" width="500pt" height="500pt" viewBox="0 0 500 500" version="1.1">
<defs>
<clipPath id="clip1">
  <path d="M 224 0 L 455 0 L 455 250 L 224 250 Z M 224 0 "/>
</clipPath>
<clipPath id="clip2">
  <path d="M 224.457031 -39.683594 L 425.957031 38.34375 L 454.632813 151.667969 L 250 250 "/>
</clipPath>
<clipPath id="clip3">
  <path d="M 250 111 L 500 111 L 500 417 L 250 417 Z M 250 111 "/>
</clipPath>
<clipPath id="clip4">
  <path d="M 454.632813 151.667969 L 519.175781 111.753906 L 590.613281 416.4375 L 250 250 "/>
</clipPath>
<clipPath id="clip5">
  <path d="M 250 250 L 500 250 L 500 500 L 250 500 Z M 250 250 "/>
</clipPath>
<clipPath id="clip6">
  <path d="M 590.613281 416.4375 L 588.03125 588.03125 L 416.4375 590.613281 L 250 250 "/>
</clipPath>
<clipPath id="clip7">
  <path d="M 111 250 L 417 250 L 417 500 L 111 500 Z M 111 250 "/>
</clipPath>
<clipPath id="clip8">
  <path d="M 416.4375 590.613281 L 111.753906 519.175781 L 151.667969 454.632813 L 250 250 "/>
</clipPath>
<clipPath id="clip9">
  <path d="M 0 224 L 250 224 L 250 455 L 0 455 Z M 0 224 "/>
</clipPath>
<clipPath id="clip10">
  <path d="M 151.667969 454.632813 L 38.34375 425.957031 L -39.683594 224.457031 L 250 250 "/>
</clipPath>
<clipPath id="clip11">
  <path d="M 0 0 L 250 0 L 250 275 L 0 275 Z M 0 0 "/>
</clipPath>
<clipPath id="clip12">
  <path d="M -39.683594 224.457031 L -132.539063 274.289063 L -57.589844 -57.589844 L 250 250 "/>
</clipPath>
<clipPath id="clip13">
  <path d="M 0 0 L 275 0 L 275 250 L 0 250 Z M 0 0 "/>
</clipPath>
<clipPath id="clip14">
  <path d="M -57.589844 -57.589844 L 274.289063 -132.539063 L 224.457031 -39.683594 L 250 250 "/>
</clipPath>
</defs>
<g id="surface13">
<g clip-path="url(#clip1)" clip-rule="nonzero">
<g clip-path="url(#clip2)" clip-rule="nonzero">
<path style="fill:none;stroke-width:10;stroke-linecap:butt;stroke-linejoin:miter;stroke:rgb(58.4%,34.5%,69.8%);stroke-opacity:1;stroke-miterlimit:10;" d="M 44.9375 44.9375 C 101.566406 -11.6875 239.277344 34.21875 352.53125 147.46875 C 465.78125 260.722656 511.6875 398.433594 455.0625 455.0625 C 398.433594 511.6875 260.722656 465.78125 147.46875 352.53125 C 34.21875 239.277344 -11.6875 101.566406 44.9375 44.9375 "/>
</g>
</g>
<path style="fill:none;stroke-width:5;stroke-linecap:butt;stroke-linejoin:miter;stroke:rgb(22%,59.6%,14.9%);stroke-opacity:1;stroke-miterlimit:10;" d="M 232.972656 56.878906 L 250 250 "/>
<g clip-path="url(#clip3)" clip-rule="nonzero">
<g clip-path="url(#clip4)" clip-rule="nonzero">
<path style="fill:none;stroke-width:10;stroke-linecap:butt;stroke-linejoin:miter;stroke:rgb(79.6%,23.5%,20%);stroke-opacity:1;stroke-miterlimit:10;" d="M 44.9375 44.9375 C 101.566406 -11.6875 239.277344 34.21875 352.53125 147.46875 C 465.78125 260.722656 511.6875 398.433594 455.0625 455.0625 C 398.433594 511.6875 260.722656 465.78125 147.46875 352.53125 C 34.21875 239.277344 -11.6875 101.566406 44.9375 44.9375 "/>
</g>
</g>
<path style="fill:none;stroke-width:5;stroke-linecap:butt;stroke-linejoin:miter;stroke:rgb(58.4%,34.5%,69.8%);stroke-opacity:1;stroke-miterlimit:10;" d="M 386.421875 184.445313 L 250 250 "/>
<g clip-path="url(#clip5)" clip-rule="nonzero">
<g clip-path="url(#clip6)" clip-rule="nonzero">
<path style="fill:none;stroke-width:10;stroke-linecap:butt;stroke-linejoin:miter;stroke:rgb(25.1%,38.8%,84.7%);stroke-opacity:1;stroke-miterlimit:10;" d="M 44.9375 44.9375 C 101.566406 -11.6875 239.277344 34.21875 352.53125 147.46875 C 465.78125 260.722656 511.6875 398.433594 455.0625 455.0625 C 398.433594 511.6875 260.722656 465.78125 147.46875 352.53125 C 34.21875 239.277344 -11.6875 101.566406 44.9375 44.9375 "/>
</g>
</g>
<path style="fill:none;stroke-width:5;stroke-linecap:butt;stroke-linejoin:miter;stroke:rgb(79.6%,23.5%,20%);stroke-opacity:1;stroke-miterlimit:10;" d="M 477.074219 360.957031 L 250 250 "/>
<g clip-path="url(#clip7)" clip-rule="nonzero">
<g clip-path="url(#clip8)" clip-rule="nonzero">
<path style="fill:none;stroke-width:10;stroke-linecap:butt;stroke-linejoin:miter;stroke:rgb(22%,59.6%,14.9%);stroke-opacity:1;stroke-miterlimit:10;" d="M 44.9375 44.9375 C 101.566406 -11.6875 239.277344 34.21875 352.53125 147.46875 C 465.78125 260.722656 511.6875 398.433594 455.0625 455.0625 C 398.433594 511.6875 260.722656 465.78125 147.46875 352.53125 C 34.21875 239.277344 -11.6875 101.566406 44.9375 44.9375 "/>
</g>
</g>
<path style="fill:none;stroke-width:5;stroke-linecap:butt;stroke-linejoin:miter;stroke:rgb(25.1%,38.8%,84.7%);stroke-opacity:1;stroke-miterlimit:10;" d="M 360.957031 477.074219 L 250 250 "/>
<g clip-path="url(#clip9)" clip-rule="nonzero">
<g clip-path="url(#clip10)" clip-rule="nonzero">
<path style="fill:none;stroke-width:10;stroke-linecap:butt;stroke-linejoin:miter;stroke:rgb(58.4%,34.5%,69.8%);stroke-opacity:1;stroke-miterlimit:10;" d="M 44.9375 44.9375 C 101.566406 -11.6875 239.277344 34.21875 352.53125 147.46875 C 465.78125 260.722656 511.6875 398.433594 455.0625 455.0625 C 398.433594 511.6875 260.722656 465.78125 147.46875 352.53125 C 34.21875 239.277344 -11.6875 101.566406 44.9375 44.9375 "/>
</g>
</g>
<path style="fill:none;stroke-width:5;stroke-linecap:butt;stroke-linejoin:miter;stroke:rgb(22%,59.6%,14.9%);stroke-opacity:1;stroke-miterlimit:10;" d="M 184.445313 386.421875 L 250 250 "/>
<g clip-path="url(#clip11)" clip-rule="nonzero">
<g clip-path="url(#clip12)" clip-rule="nonzero">
<path style="fill:none;stroke-width:10;stroke-linecap:butt;stroke-linejoin:miter;stroke:rgb(79.6%,23.5%,20%);stroke-opacity:1;stroke-miterlimit:10;" d="M 44.9375 44.9375 C 101.566406 -11.6875 239.277344 34.21875 352.53125 147.46875 C 465.78125 260.722656 511.6875 398.433594 455.0625 455.0625 C 398.433594 511.6875 260.722656 465.78125 147.46875 352.53125 C 34.21875 239.277344 -11.6875 101.566406 44.9375 44.9375 "/>
</g>
</g>
<path style="fill:none;stroke-width:5;stroke-linecap:butt;stroke-linejoin:miter;stroke:rgb(58.4%,34.5%,69.8%);stroke-opacity:1;stroke-miterlimit:10;" d="M 56.878906 232.972656 L 250 250 "/>
<g clip-path="url(#clip13)" clip-rule="nonzero">
<g clip-path="url(#clip14)" clip-rule="nonzero">
<path style="fill:none;stroke-width:10;stroke-linecap:butt;stroke-linejoin:miter;stroke:rgb(22%,59.6%,14.9%);stroke-opacity:1;stroke-miterlimit:10;" d="M 44.9375 44.9375 C 101.566406 -11.6875 239.277344 34.21875 352.53125 147.46875 C 465.78125 260.722656 511.6875 398.433594 455.0625 455.0625 C 398.433594 511.6875 260.722656 465.78125 147.46875 352.53125 C 34.21875 239.277344 -11.6875 101.566406 44.9375 44.9375 "/>
</g>
</g>
<path style="fill:none;stroke-width:5;stroke-linecap:butt;stroke-linejoin:miter;stroke:rgb(79.6%,23.5%,20%);stroke-opacity:1;stroke-miterlimit:10;" d="M 44.9375 44.9375 L 250 250 "/>
<path style=" stroke:none;fill-rule:nonzero;fill:rgb(22%,59.6%,14.9%);fill-opacity:1;" d="M 261 250 C 261 256.074219 256.074219 261 250 261 C 243.925781 261 239 256.074219 239 250 C 239 243.925781 243.925781 239 250 239 C 256.074219 239 261 243.925781 261 250 "/>
<path style=" stroke:none;fill-rule:nonzero;fill:rgb(22%,59.6%,14.9%);fill-opacity:1;" d="M 251.972656 56.878906 C 251.972656 67.371094 243.464844 75.878906 232.972656 75.878906 C 222.480469 75.878906 213.972656 67.371094 213.972656 56.878906 C 213.972656 46.382813 222.480469 37.878906 232.972656 37.878906 C 243.464844 37.878906 251.972656 46.382813 251.972656 56.878906 "/>
<path style=" stroke:none;fill-rule:nonzero;fill:rgb(58.4%,34.5%,69.8%);fill-opacity:1;" d="M 405.421875 184.445313 C 405.421875 194.9375 396.914063 203.445313 386.421875 203.445313 C 375.925781 203.445313 367.421875 194.9375 367.421875 184.445313 C 367.421875 173.949219 375.925781 165.445313 386.421875 165.445313 C 396.914063 165.445313 405.421875 173.949219 405.421875 184.445313 "/>
<path style=" stroke:none;fill-rule:nonzero;fill:rgb(79.6%,23.5%,20%);fill-opacity:1;" d="M 496.074219 360.957031 C 496.074219 371.449219 487.570313 379.957031 477.074219 379.957031 C 466.582031 379.957031 458.074219 371.449219 458.074219 360.957031 C 458.074219 350.464844 466.582031 341.957031 477.074219 341.957031 C 487.570313 341.957031 496.074219 350.464844 496.074219 360.957031 "/>
<path style=" stroke:none;fill-rule:nonzero;fill:rgb(25.1%,38.8%,84.7%);fill-opacity:1;" d="M 379.957031 477.074219 C 379.957031 487.570313 371.449219 496.074219 360.957031 496.074219 C 350.464844 496.074219 341.957031 487.570313 341.957031 477.074219 C 341.957031 466.582031 350.464844 458.074219 360.957031 458.074219 C 371.449219 458.074219 379.957031 466.582031 379.957031 477.074219 "/>
<path style=" stroke:none;fill-rule:nonzero;fill:rgb(22%,59.6%,14.9%);fill-opacity:1;" d="M 203.445313 386.421875 C 203.445313 396.914063 194.9375 405.421875 184.445313 405.421875 C 173.949219 405.421875 165.445313 396.914063 165.445313 386.421875 C 165.445313 375.925781 173.949219 367.421875 184.445313 367.421875 C 194.9375 367.421875 203.445313 375.925781 203.445313 386.421875 "/>
<path style=" stroke:none;fill-rule:nonzero;fill:rgb(58.4%,34.5%,69.8%);fill-opacity:1;" d="M 75.878906 232.972656 C 75.878906 243.464844 67.371094 251.972656 56.878906 251.972656 C 46.382813 251.972656 37.878906 243.464844 37.878906 232.972656 C 37.878906 222.480469 46.382813 213.972656 56.878906 213.972656 C 67.371094 213.972656 75.878906 222.480469 75.878906 232.972656 "/>
<path style=" stroke:none;fill-rule:nonzero;fill:rgb(79.6%,23.5%,20%);fill-opacity:1;" d="M 63.9375 44.9375 C 63.9375 55.433594 55.433594 63.9375 44.9375 63.9375 C 34.445313 63.9375 25.9375 55.433594 25.9375 44.9375 C 25.9375 34.445313 34.445313 25.9375 44.9375 25.9375 C 55.433594 25.9375 63.9375 34.445313 63.9375 44.9375 "/>
</g>
</svg>
